<?xml version="1.0" encoding="iso-8859-1"?>
<!-- Generator: Adobe Illustrator 19.0.0, SVG Export Plug-In . SVG Version: 6.00 Build 0)  -->
<svg version="1.1" id="Capa_1" xmlns="http://www.w3.org/2000/svg" xmlns:xlink="http://www.w3.org/1999/xlink" x="0px" y="0px"
	 viewBox="0 0 512 512" style="enable-background:new 0 0 512 512;" xml:space="preserve">
<path style="fill:#A4D9F5;" d="M467,346h-30c-8.284,0-15-6.716-15-15s6.716-15,15-15h30c8.271,0,15-6.729,15-15V91
	c0-8.271-6.729-15-15-15H165c-8.271,0-15,6.729-15,15v30c0,8.284-6.716,15-15,15s-15-6.716-15-15V91c0-24.813,20.187-45,45-45h302
	c24.813,0,45,20.187,45,45v210C512,325.813,491.813,346,467,346z"/>
<path style="fill:#AA3DC8;" d="M407,406h-32c-8.284,0-15-6.716-15-15s6.716-15,15-15h32c8.271,0,15-6.729,15-15V151
	c0-8.271-6.729-15-15-15H105c-8.271,0-15,6.729-15,15v30c0,8.284-6.716,15-15,15s-15-6.716-15-15v-30c0-24.813,20.187-45,45-45h302
	c24.813,0,45,20.187,45,45v210C452,385.813,431.813,406,407,406z"/>
<g>
	<path style="fill:#FEA832;" d="M23.787,457.213c-3.839,0-7.678-1.464-10.606-4.394c-5.858-5.858-5.858-15.355,0-21.213
		l126.424-126.424c5.857-5.858,15.355-5.858,21.213,0s5.858,15.355,0,21.213L34.393,452.82
		C31.464,455.749,27.625,457.213,23.787,457.213z"/>
	<path style="fill:#FEA832;" d="M366.213,457.213c-3.839,0-7.678-1.464-10.606-4.394L229.183,326.396
		c-5.858-5.858-5.858-15.355,0-21.213c5.857-5.858,15.355-5.858,21.213,0l126.423,126.424c5.858,5.858,5.858,15.355,0,21.213
		C373.891,455.749,370.052,457.213,366.213,457.213z"/>
</g>
<path style="fill:#FEDB41;" d="M376.229,178.646c-0.094-0.098-0.176-0.204-0.273-0.3c-0.215-0.213-0.444-0.401-0.669-0.599
	c-0.045-0.041-0.091-0.081-0.136-0.122c-0.137-0.118-0.27-0.244-0.411-0.356C366.804,170.264,356.393,166,345,166H45
	c-11.393,0-21.803,4.264-29.74,11.27c-0.14,0.112-0.273,0.237-0.41,0.355c-0.046,0.041-0.092,0.082-0.137,0.123
	c-0.224,0.197-0.453,0.385-0.667,0.598c-0.096,0.096-0.178,0.2-0.271,0.297C5.291,186.832,0,198.306,0,211v210
	c0,24.813,20.187,45,45,45h300c24.813,0,45-20.187,45-45V211C390,198.308,384.71,186.834,376.229,178.646z M337.35,196
	L205.656,328.931c-2.838,2.865-6.623,4.443-10.656,4.443s-7.817-1.578-10.656-4.443L52.65,196H337.35z M345,436H45
	c-8.271,0-15-6.729-15-15V215.764l133.032,134.281c8.516,8.595,19.869,13.329,31.968,13.329s23.453-4.734,31.968-13.329L360,215.764
	V421C360,429.271,353.271,436,345,436z"/>
<g>
</g>
<g>
</g>
<g>
</g>
<g>
</g>
<g>
</g>
<g>
</g>
<g>
</g>
<g>
</g>
<g>
</g>
<g>
</g>
<g>
</g>
<g>
</g>
<g>
</g>
<g>
</g>
<g>
</g>
</svg>
